<svg width="18" height="18" viewBox="0 0 18 18" fill="none" xmlns="http://www.w3.org/2000/svg">
<path fill-rule="evenodd" clip-rule="evenodd" d="M9 18C13.9706 18 18 13.9706 18 9C18 4.02944 13.9706 0 9 0C4.02944 0 0 4.02944 0 9C0 13.9706 4.02944 18 9 18ZM11.356 12.0851C11.7853 11.6809 12 11.1915 12 10.617C12 10.156 11.8819 9.78723 11.6458 9.51064C11.4168 9.22695 11.1306 9.01418 10.7871 8.87234C10.4508 8.7305 10.025 8.59929 9.50984 8.47872V6.32979C10.1252 6.40071 10.7048 6.5922 11.2487 6.90425L11.6887 5.82979C11.4025 5.64539 11.0662 5.49645 10.6798 5.38298C10.3005 5.2695 9.91055 5.20213 9.50984 5.18085V4H8.6297V5.20213C7.82826 5.28014 7.21646 5.52128 6.79428 5.92553C6.37209 6.32979 6.161 6.81915 6.161 7.39362C6.161 7.85461 6.27549 8.22695 6.50447 8.51064C6.73345 8.78723 7.0161 9 7.35242 9.14894C7.69589 9.29078 8.12165 9.42199 8.6297 9.54255V11.6702C8.22182 11.6348 7.82826 11.5461 7.44902 11.4043C7.06977 11.2553 6.74776 11.0745 6.48301 10.8617L6 11.9362C6.27907 12.1773 6.65474 12.3759 7.12701 12.5319C7.59928 12.6879 8.10018 12.7837 8.6297 12.8191V14H9.50984V12.8085C10.3184 12.7234 10.9338 12.4823 11.356 12.0851ZM7.82469 7.89362C7.63864 7.75177 7.54562 7.56383 7.54562 7.32979C7.54562 7.08156 7.63506 6.87234 7.81395 6.70213C7.99284 6.53191 8.26476 6.41844 8.6297 6.3617V8.25532C8.27907 8.15603 8.01073 8.03546 7.82469 7.89362ZM10.347 11.3191C10.1682 11.4823 9.88909 11.5922 9.50984 11.6489V9.76596C9.86762 9.86525 10.1431 9.98936 10.3363 10.1383C10.5295 10.2801 10.6261 10.4716 10.6261 10.7128C10.6261 10.9539 10.5331 11.156 10.347 11.3191Z" fill="#9FA3B0"/>
</svg>
